<svg xmlns="http://www.w3.org/2000/svg" xmlns:xlink="http://www.w3.org/1999/xlink" width="500" zoomAndPan="magnify" viewBox="0 0 375 374.999991" height="500" preserveAspectRatio="xMidYMid meet" version="1.0"><defs><g/><clipPath id="6276d39ced"><path d="M 48 86 L 298 86 L 298 296.046875 L 48 296.046875 Z M 48 86 " clip-rule="nonzero"/></clipPath><clipPath id="5a68433d3b"><path d="M 202 177.464844 L 260 177.464844 L 260 250 L 202 250 Z M 202 177.464844 " clip-rule="nonzero"/></clipPath><clipPath id="b8fbdbd3f9"><path d="M 129.160156 177.464844 L 271 177.464844 L 271 285.523438 L 129.160156 285.523438 Z M 129.160156 177.464844 " clip-rule="nonzero"/></clipPath><clipPath id="657e37d13d"><path d="M 140 177.464844 L 198 177.464844 L 198 250 L 140 250 Z M 140 177.464844 " clip-rule="nonzero"/></clipPath><clipPath id="da2f36f01a"><path d="M 77.085938 297.257812 L 322.804688 297.257812 L 322.804688 309.101562 L 77.085938 309.101562 Z M 77.085938 297.257812 " clip-rule="nonzero"/></clipPath><clipPath id="0c4ecdca93"><path d="M 205.714844 303.175781 L 199.792969 297.257812 L 193.871094 303.175781 L 199.792969 309.097656 Z M 138.050781 301.578125 L 137.257812 304.535156 L 191.402344 305.574219 L 189.394531 303.175781 L 191.402344 300.78125 Z M 261.863281 304.777344 L 262.65625 301.820312 L 208.511719 300.78125 L 210.519531 303.175781 L 208.511719 305.574219 Z M 265.023438 301.863281 L 267.097656 301.902344 L 266.347656 304.707031 L 264.25 304.742188 Z M 269.464844 301.949219 L 271.539062 301.988281 L 270.828125 304.640625 L 268.734375 304.671875 Z M 273.90625 302.035156 L 275.980469 302.074219 L 275.3125 304.574219 L 273.214844 304.605469 Z M 278.347656 302.121094 L 280.421875 302.160156 L 279.792969 304.507812 L 277.699219 304.539062 Z M 134.894531 304.492188 L 132.816406 304.449219 L 133.570312 301.644531 L 135.664062 301.613281 Z M 282.179688 304.472656 L 322.773438 303.863281 L 322.773438 302.972656 L 282.785156 302.203125 Z M 130.453125 304.40625 L 128.375 304.367188 L 129.085938 301.714844 L 131.183594 301.683594 Z M 126.011719 304.320312 L 123.933594 304.28125 L 124.605469 301.78125 L 126.699219 301.75 Z M 121.570312 304.234375 L 119.492188 304.195312 L 120.121094 301.847656 L 122.21875 301.816406 Z M 117.734375 301.882812 L 77.140625 302.492188 L 77.140625 303.382812 L 117.128906 304.148438 Z M 117.734375 301.882812 " clip-rule="evenodd"/></clipPath></defs><rect x="-37.5" width="450" fill="#ffffff" y="-37.499999" height="449.999989" fill-opacity="1"/><rect x="-37.5" width="450" fill="#1b1f30" y="-37.499999" height="449.999989" fill-opacity="1"/><path fill="#ffffff" d="M 231.746094 56.867188 C 226.023438 63.589844 217.492188 67.855469 208 67.855469 C 190.789062 67.855469 176.800781 53.867188 176.800781 36.65625 C 176.800781 19.441406 190.789062 5.457031 208 5.457031 C 217.53125 5.457031 226.023438 9.722656 231.746094 16.445312 C 225.175781 6.53125 213.957031 0 201.199219 0 C 180.992188 0 164.585938 16.40625 164.585938 36.617188 C 164.585938 56.828125 180.992188 73.234375 201.199219 73.234375 C 213.957031 73.234375 225.175781 66.738281 231.746094 56.867188 Z M 231.746094 56.867188 " fill-opacity="1" fill-rule="nonzero"/><g clip-path="url(#6276d39ced)"><path fill="#ffffff" d="M 75.828125 296.046875 C 75.828125 296.046875 13.96875 238.527344 75.828125 185.390625 C 75.828125 185.390625 192.632812 98.246094 200.585938 86.644531 C 200.585938 86.644531 258.644531 150.117188 297.140625 162.605469 C 297.140625 162.605469 246.695312 149.042969 200.585938 104.546875 C 200.585938 104.546875 117.054688 175.628906 83.398438 196.222656 C 83.4375 196.222656 33.523438 230.382812 75.828125 296.046875 Z M 75.828125 296.046875 " fill-opacity="1" fill-rule="nonzero"/></g><path fill="#ffffff" d="M 231.707031 27.472656 L 213.613281 27.472656 L 208.039062 10.296875 L 202.46875 27.472656 L 184.371094 27.472656 L 198.855469 38.539062 L 193.441406 55.289062 L 207.808594 44.839844 L 222.679688 55.289062 L 217.070312 38.078125 Z M 231.707031 27.472656 " fill-opacity="1" fill-rule="nonzero"/><g clip-path="url(#5a68433d3b)"><path fill="#ffffff" d="M 259.488281 221.515625 L 245.460938 177.460938 C 245.460938 177.460938 240.046875 182.191406 225.28125 184.433594 C 210.511719 186.671875 202.390625 195.132812 202.390625 195.132812 L 202.390625 249.394531 C 213.957031 234.707031 259.488281 221.515625 259.488281 221.515625 " fill-opacity="1" fill-rule="nonzero"/></g><g clip-path="url(#b8fbdbd3f9)"><path fill="#ffffff" d="M 265.554688 230.984375 L 232.609375 247.144531 C 234.382812 247.757812 236.164062 248.539062 237.566406 250.589844 C 240.269531 254.523438 236.710938 256.734375 236.339844 256.617188 C 236.207031 256.574219 231.292969 254.050781 225.078125 250.847656 L 222.820312 251.957031 L 222.820312 251.964844 C 231.75 255.175781 238.460938 266.164062 241.667969 268.820312 C 245.753906 272.1875 251.613281 271.15625 255.515625 276.835938 C 259.425781 282.519531 254.277344 285.773438 253.742188 285.59375 C 253.28125 285.445312 212.914062 264.996094 202.421875 259.300781 L 197.507812 259.300781 C 187.011719 264.996094 146.648438 285.445312 146.183594 285.59375 C 145.652344 285.773438 140.503906 282.519531 144.414062 276.835938 C 148.3125 271.15625 154.175781 272.1875 158.261719 268.820312 C 161.464844 266.164062 168.179688 255.175781 177.109375 251.964844 L 177.109375 251.957031 L 174.851562 250.847656 C 168.636719 254.050781 163.722656 256.574219 163.585938 256.617188 C 163.214844 256.734375 159.65625 254.523438 162.363281 250.589844 C 163.765625 248.539062 165.546875 247.757812 167.316406 247.144531 L 134.371094 230.984375 L 129.195312 228.441406 L 130.976562 222.714844 L 144.972656 177.601562 L 150.414062 179.289062 L 136.175781 225.179688 L 199.964844 255.382812 L 263.753906 225.179688 L 249.511719 179.289062 L 254.953125 177.601562 L 268.953125 222.714844 L 270.730469 228.441406 L 265.554688 230.984375 " fill-opacity="1" fill-rule="nonzero"/></g><g clip-path="url(#657e37d13d)"><path fill="#ffffff" d="M 197.535156 249.394531 L 197.535156 195.132812 C 197.535156 195.132812 189.414062 186.671875 174.648438 184.433594 C 159.882812 182.191406 154.464844 177.460938 154.464844 177.460938 L 140.4375 221.515625 C 140.4375 221.515625 185.96875 234.707031 197.535156 249.394531 " fill-opacity="1" fill-rule="nonzero"/></g><g clip-path="url(#da2f36f01a)"><g clip-path="url(#0c4ecdca93)"><path fill="#ffffff" d="M 77.140625 309.097656 L 322.773438 309.097656 L 322.773438 297.257812 L 77.140625 297.257812 Z M 77.140625 309.097656 " fill-opacity="1" fill-rule="nonzero"/></g></g><g fill="#ffffff" fill-opacity="1"><g transform="translate(145.683398, 354.277947)"><g><path d="M 1.203125 -1.296875 C 1.203125 -2.359375 1.347656 -3.707031 1.640625 -5.34375 C 1.941406 -6.988281 2.601562 -8.941406 3.625 -11.203125 L 9.34375 -9.203125 C 8.820312 -7.742188 8.421875 -6.492188 8.140625 -5.453125 C 7.859375 -4.421875 7.71875 -3.410156 7.71875 -2.421875 C 7.71875 -0.367188 8.59375 1.25 10.34375 2.4375 C 12.09375 3.632812 14.613281 4.234375 17.90625 4.234375 C 21.3125 4.234375 23.984375 3.914062 25.921875 3.28125 C 27.859375 2.644531 28.828125 1.707031 28.828125 0.46875 C 28.828125 -0.0625 28.398438 -0.585938 27.546875 -1.109375 C 26.691406 -1.640625 25.226562 -2.273438 23.15625 -3.015625 L 24.6875 -9.578125 C 27.320312 -8.460938 29.722656 -7.632812 31.890625 -7.09375 C 34.066406 -6.550781 35.992188 -6.28125 37.671875 -6.28125 C 38.847656 -6.28125 39.679688 -5.976562 40.171875 -5.375 C 40.671875 -4.769531 40.921875 -4.015625 40.921875 -3.109375 C 40.921875 -2.148438 40.59375 -1.351562 39.9375 -0.71875 C 39.289062 -0.0820312 38.378906 0.234375 37.203125 0.234375 L 35.0625 0.234375 C 35.125 0.546875 35.15625 0.816406 35.15625 1.046875 C 35.15625 1.273438 35.15625 1.5 35.15625 1.71875 C 35.15625 2.738281 34.804688 3.773438 34.109375 4.828125 C 33.410156 5.890625 32.332031 6.867188 30.875 7.765625 C 29.414062 8.660156 27.5625 9.378906 25.3125 9.921875 C 23.070312 10.460938 20.398438 10.734375 17.296875 10.734375 C 12.242188 10.734375 8.296875 9.765625 5.453125 7.828125 C 2.617188 5.890625 1.203125 2.847656 1.203125 -1.296875 Z M 21.84375 21.515625 C 20.945312 21.515625 20.179688 21.203125 19.546875 20.578125 C 18.910156 19.960938 18.59375 19.207031 18.59375 18.3125 C 18.59375 17.414062 18.910156 16.640625 19.546875 15.984375 C 20.179688 15.335938 20.945312 15.015625 21.84375 15.015625 C 22.71875 15.015625 23.460938 15.335938 24.078125 15.984375 C 24.703125 16.640625 25.015625 17.414062 25.015625 18.3125 C 25.015625 19.207031 24.703125 19.960938 24.078125 20.578125 C 23.460938 21.203125 22.71875 21.515625 21.84375 21.515625 Z M 13.8125 21.515625 C 12.90625 21.515625 12.132812 21.203125 11.5 20.578125 C 10.863281 19.960938 10.546875 19.207031 10.546875 18.3125 C 10.546875 17.414062 10.863281 16.640625 11.5 15.984375 C 12.132812 15.335938 12.90625 15.015625 13.8125 15.015625 C 14.675781 15.015625 15.414062 15.335938 16.03125 15.984375 C 16.65625 16.640625 16.96875 17.414062 16.96875 18.3125 C 16.96875 19.207031 16.65625 19.960938 16.03125 20.578125 C 15.414062 21.203125 14.675781 21.515625 13.8125 21.515625 Z M 13.8125 21.515625 "/></g></g></g><g fill="#ffffff" fill-opacity="1"><g transform="translate(182.877963, 354.277947)"><g><path d="M 0 0.234375 L 0.46875 -6.28125 C 1.644531 -6.28125 2.582031 -6.382812 3.28125 -6.59375 C 3.976562 -6.8125 4.535156 -7.253906 4.953125 -7.921875 C 5.367188 -8.585938 5.722656 -9.570312 6.015625 -10.875 C 6.316406 -12.175781 6.617188 -13.914062 6.921875 -16.09375 L 13.015625 -15.0625 C 12.890625 -14.351562 12.75 -13.5 12.59375 -12.5 C 12.445312 -11.507812 12.375 -10.597656 12.375 -9.765625 C 12.375 -9.023438 12.535156 -8.390625 12.859375 -7.859375 C 13.179688 -7.328125 13.769531 -6.929688 14.625 -6.671875 C 15.476562 -6.410156 16.710938 -6.28125 18.328125 -6.28125 C 19.503906 -6.28125 20.335938 -5.976562 20.828125 -5.375 C 21.328125 -4.769531 21.578125 -4.015625 21.578125 -3.109375 C 21.578125 -2.148438 21.257812 -1.351562 20.625 -0.71875 C 19.988281 -0.0820312 19.066406 0.234375 17.859375 0.234375 C 15.378906 0.234375 13.445312 -0.0234375 12.0625 -0.546875 C 10.6875 -1.078125 9.703125 -2.023438 9.109375 -3.390625 C 7.960938 -1.773438 6.609375 -0.765625 5.046875 -0.359375 C 3.484375 0.0351562 1.800781 0.234375 0 0.234375 Z M 9.953125 -20.375 C 8.984375 -20.375 8.164062 -20.695312 7.5 -21.34375 C 6.832031 -22 6.5 -22.804688 6.5 -23.765625 C 6.5 -24.722656 6.832031 -25.539062 7.5 -26.21875 C 8.164062 -26.90625 8.984375 -27.25 9.953125 -27.25 C 10.878906 -27.25 11.675781 -26.90625 12.34375 -26.21875 C 13.007812 -25.539062 13.34375 -24.722656 13.34375 -23.765625 C 13.34375 -22.804688 13.007812 -22 12.34375 -21.34375 C 11.675781 -20.695312 10.878906 -20.375 9.953125 -20.375 Z M 9.953125 -20.375 "/></g></g></g><g fill="#ffffff" fill-opacity="1"><g transform="translate(200.731355, 354.277947)"><g><path d="M 0 0.234375 L 0.46875 -6.28125 C 2.476562 -6.28125 3.882812 -6.503906 4.6875 -6.953125 C 5.5 -7.398438 5.90625 -8.351562 5.90625 -9.8125 C 5.90625 -10.675781 5.785156 -11.710938 5.546875 -12.921875 C 5.316406 -14.128906 5.015625 -15.375 4.640625 -16.65625 C 4.273438 -17.945312 3.90625 -19.15625 3.53125 -20.28125 L 9.953125 -22.046875 C 10.328125 -20.984375 10.695312 -19.753906 11.0625 -18.359375 C 11.4375 -16.972656 11.753906 -15.535156 12.015625 -14.046875 C 12.285156 -12.554688 12.421875 -11.144531 12.421875 -9.8125 C 12.421875 -7.707031 12.09375 -5.992188 11.4375 -4.671875 C 10.789062 -3.359375 9.882812 -2.34375 8.71875 -1.625 C 7.550781 -0.914062 6.222656 -0.425781 4.734375 -0.15625 C 3.253906 0.101562 1.675781 0.234375 0 0.234375 Z M 5.71875 10.921875 C 4.8125 10.921875 4.039062 10.609375 3.40625 9.984375 C 2.769531 9.367188 2.453125 8.613281 2.453125 7.71875 C 2.453125 6.820312 2.769531 6.039062 3.40625 5.375 C 4.039062 4.707031 4.8125 4.375 5.71875 4.375 C 6.582031 4.375 7.335938 4.707031 7.984375 5.375 C 8.640625 6.039062 8.96875 6.820312 8.96875 7.71875 C 8.96875 8.613281 8.640625 9.367188 7.984375 9.984375 C 7.335938 10.609375 6.582031 10.921875 5.71875 10.921875 Z M 5.71875 10.921875 "/></g></g></g><g fill="#ffffff" fill-opacity="1"><g transform="translate(215.469701, 354.277947)"><g><path d="M 14.734375 0.234375 C 11.859375 0.234375 9.632812 -0.0546875 8.0625 -0.640625 C 6.5 -1.234375 5.398438 -2.15625 4.765625 -3.40625 C 4.128906 -4.664062 3.78125 -6.257812 3.71875 -8.1875 L 2.75 -34.03125 L 9.25 -34.03125 L 10.234375 -11.296875 C 10.296875 -9.867188 10.445312 -8.796875 10.6875 -8.078125 C 10.9375 -7.367188 11.398438 -6.890625 12.078125 -6.640625 C 12.765625 -6.398438 13.804688 -6.28125 15.203125 -6.28125 C 16.347656 -6.28125 17.179688 -5.976562 17.703125 -5.375 C 18.234375 -4.769531 18.5 -4.015625 18.5 -3.109375 C 18.5 -2.148438 18.171875 -1.351562 17.515625 -0.71875 C 16.867188 -0.0820312 15.941406 0.234375 14.734375 0.234375 Z M 14.734375 0.234375 "/></g></g></g><g fill="#ffffff" fill-opacity="1"><g transform="translate(230.254546, 354.277947)"><g><path d="M 0 0.234375 L 0.46875 -6.28125 C 2.320312 -6.28125 3.742188 -6.367188 4.734375 -6.546875 C 5.734375 -6.734375 6.425781 -7.082031 6.8125 -7.59375 C 7.195312 -8.113281 7.390625 -8.851562 7.390625 -9.8125 C 7.390625 -10.675781 7.273438 -11.710938 7.046875 -12.921875 C 6.816406 -14.128906 6.515625 -15.375 6.140625 -16.65625 C 5.765625 -17.945312 5.390625 -19.15625 5.015625 -20.28125 L 11.4375 -22.046875 C 11.8125 -20.984375 12.191406 -19.753906 12.578125 -18.359375 C 12.960938 -16.972656 13.28125 -15.535156 13.53125 -14.046875 C 13.78125 -12.554688 13.90625 -11.144531 13.90625 -9.8125 C 13.90625 -7.707031 13.5625 -5.992188 12.875 -4.671875 C 12.195312 -3.359375 11.242188 -2.34375 10.015625 -1.625 C 8.796875 -0.914062 7.332031 -0.425781 5.625 -0.15625 C 3.914062 0.101562 2.039062 0.234375 0 0.234375 Z M 11.484375 11.015625 C 10.585938 11.015625 9.820312 10.703125 9.1875 10.078125 C 8.550781 9.460938 8.234375 8.707031 8.234375 7.8125 C 8.234375 6.914062 8.550781 6.140625 9.1875 5.484375 C 9.820312 4.835938 10.585938 4.515625 11.484375 4.515625 C 12.359375 4.515625 13.101562 4.835938 13.71875 5.484375 C 14.34375 6.140625 14.65625 6.914062 14.65625 7.8125 C 14.65625 8.707031 14.34375 9.460938 13.71875 10.078125 C 13.101562 10.703125 12.359375 11.015625 11.484375 11.015625 Z M 3.453125 11.015625 C 2.546875 11.015625 1.773438 10.703125 1.140625 10.078125 C 0.503906 9.460938 0.1875 8.707031 0.1875 7.8125 C 0.1875 6.914062 0.503906 6.140625 1.140625 5.484375 C 1.773438 4.835938 2.546875 4.515625 3.453125 4.515625 C 4.316406 4.515625 5.054688 4.835938 5.671875 5.484375 C 6.296875 6.140625 6.609375 6.914062 6.609375 7.8125 C 6.609375 8.707031 6.296875 9.460938 5.671875 10.078125 C 5.054688 10.703125 4.316406 11.015625 3.453125 11.015625 Z M 3.453125 11.015625 "/></g></g></g></svg>